<svg id="Layer_1" data-name="Layer 1" xmlns="http://www.w3.org/2000/svg" viewBox="0 0 32 32"><defs><style>.cls-1{fill:#ffffff;fill-rule:evenodd;}</style></defs><path class="cls-1" d="M16,29.5373A13.2369,13.2369,0,0,1,6.4157,25.49l.047-.2039C7.8118,23.4039,11.1843,21.349,16,21.349c4.8314,0,8.1882,2.0549,9.5373,3.9373l.047.2039A13.2369,13.2369,0,0,1,16,29.5373Zm0-10.8549a5.5936,5.5936,0,0,1-5.38-5.9138A5.591,5.591,0,0,1,16,6.9647a5.6011,5.6011,0,0,1,5.38,5.8039C21.38,16.1412,19.0118,18.7137,16,18.6824ZM16,32A16.1083,16.1083,0,0,0,32,16,16.1322,16.1322,0,0,0,15.9843,0,16.1154,16.1154,0,0,0,0,16,16.1186,16.1186,0,0,0,16,32Z"/></svg>